<svg xmlns="http://www.w3.org/2000/svg" xmlns:xlink="http://www.w3.org/1999/xlink" width="16px" height="16px" viewBox="0 0 16 16" version="1.1"> <g id="Page-1" stroke="none" stroke-width="1" fill="none" fill-rule="evenodd"> <g id="Search->-Suggestions-(Empty-Query)" transform="translate(-586.000000, -74.000000)"> <g id="Popup" transform="translate(457.000000, 33.000000)"> <g id="Recent-Searches" transform="translate(12.000000, 40.000000)"> <g id="24px-(4)" transform="translate(116.000000, 0.000000)"> <path d="M9,1.5 C4.8525,1.5 1.5,4.8525 1.5,9 C1.5,13.1475 4.8525,16.5 9,16.5 C13.1475,16.5 16.5,13.1475 16.5,9 C16.5,4.8525 13.1475,1.5 9,1.5 Z M12.75,11.6925 L11.6925,12.75 L9,10.0575 L6.3075,12.75 L5.25,11.6925 L7.9425,9 L5.25,6.3075 L6.3075,5.25 L9,7.9425 L11.6925,5.25 L12.75,6.3075 L10.0575,9 L12.75,11.6925 Z" id="Shape" fill="#9E9E9E" fill-rule="nonzero"></path> <polygon id="Path" points="0 0 18 0 18 18 0 18"></polygon> </g> </g> </g> </g> </g> </svg>
