<?xml version="1.0" encoding="UTF-8" standalone="no"?>
<svg
   xmlns:dc="http://purl.org/dc/elements/1.1/"
   xmlns:cc="http://creativecommons.org/ns#"
   xmlns:rdf="http://www.w3.org/1999/02/22-rdf-syntax-ns#"
   xmlns:svg="http://www.w3.org/2000/svg"
   xmlns="http://www.w3.org/2000/svg"
   xmlns:sodipodi="http://sodipodi.sourceforge.net/DTD/sodipodi-0.dtd"
   xmlns:inkscape="http://www.inkscape.org/namespaces/inkscape"
   version="1.1"
   id="Capa_1"
   x="0px"
   y="0px"
   width="292.362px"
   height="292.362px"
   viewBox="0 0 292.362 292.362"
   style="enable-background:new 0 0 292.362 292.362;"
   xml:space="preserve"
   sodipodi:docname="sort-down.svg"
   inkscape:version="1.0.1 (3bc2e813f5, 2020-09-07)"><metadata
   id="metadata913"><rdf:RDF><cc:Work
       rdf:about=""><dc:format>image/svg+xml</dc:format><dc:type
         rdf:resource="http://purl.org/dc/dcmitype/StillImage" /><dc:title /></cc:Work></rdf:RDF></metadata><defs
   id="defs911" /><sodipodi:namedview
   pagecolor="#ffffff"
   bordercolor="#666666"
   borderopacity="1"
   objecttolerance="10"
   gridtolerance="10"
   guidetolerance="10"
   inkscape:pageopacity="0"
   inkscape:pageshadow="2"
   inkscape:window-width="1600"
   inkscape:window-height="837"
   id="namedview909"
   showgrid="false"
   inkscape:zoom="0.81023106"
   inkscape:cx="26.664315"
   inkscape:cy="218.97883"
   inkscape:window-x="-8"
   inkscape:window-y="-8"
   inkscape:window-maximized="1"
   inkscape:current-layer="Capa_1"
   inkscape:document-rotation="0" />
<g
   id="g876"
   transform="matrix(0.62006203,0,0,0.4146261,55.539712,85.84687)"
   style="stroke-width:1.9722">
	<path
   d="m 286.935,69.377 c -3.614,-3.617 -8.66508,-9.382248 -12.848,-5.424 -79.66962,75.39039 -165.53444,67.39807 -255.813,0 C 13.8434,60.645305 9.041,65.76 5.424,69.377 1.807,72.998 0,77.279 0,82.228 c 0,4.948 1.807,9.229 5.424,12.847 l 127.907,127.907 c 3.621,3.617 7.902,5.428 12.85,5.428 4.948,0 9.233,-1.811 12.847,-5.428 L 286.935,95.074 c 3.613,-3.617 5.427,-7.898 5.427,-12.847 0,-4.948 -1.814,-9.229 -5.427,-12.85 z"
   id="path874"
   style="stroke-width:1.9722"
   sodipodi:nodetypes="csscsccsccsc" />
</g>
<g
   id="g878">
</g>
<g
   id="g880">
</g>
<g
   id="g882">
</g>
<g
   id="g884">
</g>
<g
   id="g886">
</g>
<g
   id="g888">
</g>
<g
   id="g890">
</g>
<g
   id="g892">
</g>
<g
   id="g894">
</g>
<g
   id="g896">
</g>
<g
   id="g898">
</g>
<g
   id="g900">
</g>
<g
   id="g902">
</g>
<g
   id="g904">
</g>
<g
   id="g906">
</g>
</svg>
