<?xml version="1.0" encoding="UTF-8" standalone="no"?>
<svg
   xmlns:dc="http://purl.org/dc/elements/1.1/"
   xmlns:cc="http://creativecommons.org/ns#"
   xmlns:rdf="http://www.w3.org/1999/02/22-rdf-syntax-ns#"
   xmlns:svg="http://www.w3.org/2000/svg"
   xmlns="http://www.w3.org/2000/svg"
   xmlns:sodipodi="http://sodipodi.sourceforge.net/DTD/sodipodi-0.dtd"
   xmlns:inkscape="http://www.inkscape.org/namespaces/inkscape"
   version="1.1"
   id="Layer_1"
   x="0px"
   y="0px"
   viewBox="0 0 512 200"
   xml:space="preserve"
   sodipodi:docname="youtube.svg"
   width="512"
   height="200"
   inkscape:version="1.0.1 (3bc2e813f5, 2020-09-07)"><metadata
   id="metadata953"><rdf:RDF><cc:Work
       rdf:about=""><dc:format>image/svg+xml</dc:format><dc:type
         rdf:resource="http://purl.org/dc/dcmitype/StillImage" /><dc:title></dc:title></cc:Work></rdf:RDF></metadata><defs
   id="defs951" /><sodipodi:namedview
   pagecolor="#ffffff"
   bordercolor="#666666"
   borderopacity="1"
   objecttolerance="10"
   gridtolerance="10"
   guidetolerance="10"
   inkscape:pageopacity="0"
   inkscape:pageshadow="2"
   inkscape:window-width="1600"
   inkscape:window-height="837"
   id="namedview949"
   showgrid="false"
   inkscape:zoom="0.65429688"
   inkscape:cx="-22.041386"
   inkscape:cy="243.41255"
   inkscape:window-x="-8"
   inkscape:window-y="-8"
   inkscape:window-maximized="1"
   inkscape:current-layer="Layer_1" />
<path
   style="fill:#e21b1b"
   d="M 493.392,191.76 H 224.728 c -10.256,-0.032 -18.568,-8.344 -18.6,-18.6 V 26.84 c 0.032,-10.256 8.344,-18.568 18.6,-18.6 H 493.4 c 10.256,0.032 18.568,8.344 18.6,18.6 v 146.328 c -0.04,10.256 -8.352,18.56 -18.608,18.592 z"
   id="path894" />
<g
   id="g904"
   transform="translate(0,-160.63215)">
	<path
   style="fill:#ffffff"
   d="M 262.224,235.568 H 240.52 V 223.96 h 57.6 v 11.608 h -21.96 v 64.592 h -13.936 z"
   id="path896" />
	<path
   style="fill:#ffffff"
   d="m 350.12,283.624 c 0,6.552 0.232,12 0.448,16.52 h -12.224 l -0.68,-8.392 h -0.2 c -3.736,6.136 -10.472,9.8 -17.656,9.6 -10.072,0 -19.2,-6.008 -19.2,-24 v -32.296 h 13.872 v 29.976 c 0,9.152 2.968,15.096 10.304,15.096 6.376,-0.184 11.44,-5.424 11.408,-11.808 v -33.248 h 13.92 z"
   id="path898" />
	<path
   style="fill:#ffffff"
   d="m 364.704,300.152 c 0.232,-3.752 0.48,-9.824 0.48,-15.496 v -64.8 h 13.888 v 32.8 h 0.232 c 3.92,-5.816 10.6,-9.152 17.6,-8.8 13.48,0 23.072,11.2 22.976,27.928 0,19.8 -12.568,29.6 -24.984,29.6 -7.128,0.36 -13.856,-3.304 -17.408,-9.496 h -0.232 l -0.68,8.256 z m 14.4,-22.736 c -0.016,1.104 0.104,2.2 0.344,3.272 1.408,5.68 6.472,9.688 12.32,9.76 8.704,0 14.032,-7.032 14.032,-18.088 0,-9.76 -4.64,-17.688 -13.92,-17.688 -5.944,0.2 -11,4.376 -12.32,10.176 -0.272,1.184 -0.416,2.4 -0.448,3.616 z"
   id="path900" />
	<path
   style="fill:#ffffff"
   d="m 441.168,276.528 c 0.304,8.256 7.248,14.704 15.504,14.4 0.488,-0.016 0.976,-0.056 1.456,-0.128 5.2,0.12 10.376,-0.736 15.256,-2.528 l 2.048,9.6 c -6.144,2.344 -12.68,3.504 -19.256,3.416 -14.336,1.304 -27.024,-9.264 -28.328,-23.6 -0.128,-1.416 -0.144,-2.84 -0.04,-4.256 -1.272,-15.024 9.872,-28.232 24.896,-29.504 0.672,-0.056 1.336,-0.088 2.008,-0.096 17.888,0 23.76,14.744 23.76,26.832 0.016,1.968 -0.136,3.936 -0.448,5.88 h -36.856 z m 24.2,-9.76 c 0.88,-6.488 -3.664,-12.464 -10.152,-13.344 -0.424,-0.056 -0.848,-0.096 -1.28,-0.104 -7.136,0.424 -12.736,6.296 -12.8,13.448 z"
   id="path902" />
</g>
<path
   d="M 24.096,138.096 V 106.352 L 0,61.904 h 15.84 l 9.152,19.52 c 2.624,5.664 4.544,9.976 6.592,15.16 h 0.2 c 1.944,-4.856 4.064,-9.6 6.688,-15.16 l 9.152,-19.52 H 63.32 L 37.984,106 v 32.088 z"
   id="path906" />
<path
   d="m 112.992,99.504754 c 1.136,15.007996 -10.112,28.088006 -25.12,29.224006 -1.048,0.08 -2.096,0.096 -3.136,0.056 -14.672,0.584 -27.04,-10.848 -27.624,-25.52001 -0.04,-0.936 -0.024,-1.88 0.04,-2.816 -1.136,-14.975996 10.096,-28.039996 25.072,-29.175996 1.144,-0.088 2.288,-0.104 3.432,-0.04 14.568,-0.552 26.832,10.808 27.384,25.376 0.04,0.968 0.024,1.936 -0.048,2.896 z m -41.48,0.615996 c 0,10.584 5.184,18.64001 13.656,18.64001 7.928,0 13.48,-7.78401 13.48,-18.912006 0,-8.6 -3.864,-18.4 -13.344,-18.4 -9.832,-0.04 -13.792,9.448 -13.792,18.671996 z"
   id="path908" />
<path
   d="m 173.72,110.4161 c 0,6.55201 0.232,12.00001 0.448,16.52001 h -12.224 l -0.68,-8.392 h -0.208 c -3.736,6.136 -10.472,9.8 -17.656,9.6 -10.072,0 -19.2,-6.008 -19.2,-24.00001 V 71.848104 h 13.888 V 101.8241 c 0,9.152 2.968,15.09601 10.304,15.09601 6.376,-0.184 11.44,-5.42401 11.408,-11.80801 V 71.864104 h 13.92 c 0,0 0,38.551996 0,38.551996 z"
   id="path910" />
<g
   id="g916"
   transform="translate(0,-142.152)">
	<g
   id="g914">
		<path
   style="opacity:0.2;fill:#ffffff;enable-background:new"
   d="M 206.128,187.792 V 313.2 c 0.032,2.336 0.416,4.648 1.144,6.864 L 392.416,164.24 H 206.24"
   id="path912" />
	</g>
</g>
<g
   id="g918">
</g>
<g
   id="g920">
</g>
<g
   id="g922">
</g>
<g
   id="g924">
</g>
<g
   id="g926">
</g>
<g
   id="g928">
</g>
<g
   id="g930">
</g>
<g
   id="g932">
</g>
<g
   id="g934">
</g>
<g
   id="g936">
</g>
<g
   id="g938">
</g>
<g
   id="g940">
</g>
<g
   id="g942">
</g>
<g
   id="g944">
</g>
<g
   id="g946">
</g>
</svg>
